REM DIRINDEX 1\2,1\3,1\4,1\5
REM DIRNAME cjc004,folder01,folder02,folder03,folder04
TITLE ""
FILE "1Q_t_1139-1148.mp3" MP3
  TRACK 01 AUDIO
    TITLE "3:cjc004_4321"
    INDEX 01 00:00:00
  TRACK 02 AUDIO
    TITLE "0:"
    INDEX 01 00:01:22
  TRACK 03 AUDIO
    TITLE "4:cjc004_4322"
    INDEX 01 00:01:50
  TRACK 04 AUDIO
    TITLE "0:"
    INDEX 01 00:02:59
  TRACK 05 AUDIO
    TITLE "5:cjc004_4323"
    INDEX 01 00:03:04
  TRACK 06 AUDIO
    TITLE "0:"
    INDEX 01 00:08:42
  TRACK 07 AUDIO
    TITLE "3:cjc004_4324"
    INDEX 01 00:09:20
  TRACK 08 AUDIO
    TITLE "0:"
    INDEX 01 00:10:41
  TRACK 09 AUDIO
    TITLE "4:cjc004_4325"
    INDEX 01 00:10:68
  TRACK 10 AUDIO
    TITLE "0:"
    INDEX 01 00:12:05
  TRACK 11 AUDIO
    TITLE "5:cjc004_4326"
    INDEX 01 00:12:34
  TRACK 12 AUDIO
    TITLE "0:"
    INDEX 01 00:18:21
  TRACK 13 AUDIO
    TITLE "3:cjc004_4327"
    INDEX 01 00:19:05
  TRACK 14 AUDIO
    TITLE "0:"
    INDEX 01 00:20:22
  TRACK 15 AUDIO
    TITLE "4:cjc004_4328"
    INDEX 01 00:20:49
  TRACK 16 AUDIO
    TITLE "0:"
    INDEX 01 00:21:57
  TRACK 17 AUDIO
    TITLE "5:cjc004_4329"
    INDEX 01 00:22:07
  TRACK 18 AUDIO
    TITLE "0:"
    INDEX 01 00:27:73
  TRACK 19 AUDIO
    TITLE "3:cjc004_4330"
    INDEX 01 00:28:55
  TRACK 20 AUDIO
    TITLE "0:"
    INDEX 01 00:29:70
  TRACK 21 AUDIO
    TITLE "4:cjc004_4331"
    INDEX 01 00:30:22
  TRACK 22 AUDIO
    TITLE "0:"
    INDEX 01 00:31:24
  TRACK 23 AUDIO
    TITLE "5:cjc004_4332"
    INDEX 01 00:31:51
  TRACK 24 AUDIO
    TITLE "0:"
    INDEX 01 00:36:74
  TRACK 25 AUDIO
    TITLE "3:cjc004_4333"
    INDEX 01 00:37:54
  TRACK 26 AUDIO
    TITLE "0:"
    INDEX 01 00:38:67
  TRACK 27 AUDIO
    TITLE "4:cjc004_4334"
    INDEX 01 00:39:19
  TRACK 28 AUDIO
    TITLE "0:"
    INDEX 01 00:40:30
  TRACK 29 AUDIO
    TITLE "5:cjc004_4335"
    INDEX 01 00:40:54
  TRACK 30 AUDIO
    TITLE "0:"
    INDEX 01 00:46:54
  TRACK 31 AUDIO
    TITLE "3:cjc004_4336"
    INDEX 01 00:47:34
  TRACK 32 AUDIO
    TITLE "0:"
    INDEX 01 00:48:36
  TRACK 33 AUDIO
    TITLE "4:cjc004_4337"
    INDEX 01 00:48:63
  TRACK 34 AUDIO
    TITLE "0:"
    INDEX 01 00:49:57
  TRACK 35 AUDIO
    TITLE "5:cjc004_4338"
    INDEX 01 00:50:07
  TRACK 36 AUDIO
    TITLE "0:"
    INDEX 01 00:54:11
  TRACK 37 AUDIO
    TITLE "3:cjc004_4339"
    INDEX 01 00:54:62
  TRACK 38 AUDIO
    TITLE "0:"
    INDEX 01 00:55:73
  TRACK 39 AUDIO
    TITLE "4:cjc004_4340"
    INDEX 01 00:56:27
  TRACK 40 AUDIO
    TITLE "0:"
    INDEX 01 00:57:56
  TRACK 41 AUDIO
    TITLE "5:cjc004_4341"
    INDEX 01 00:58:03
  TRACK 42 AUDIO
    TITLE "0:"
    INDEX 01 01:03:06
  TRACK 43 AUDIO
    TITLE "3:cjc004_4342"
    INDEX 01 01:03:55
  TRACK 44 AUDIO
    TITLE "0:"
    INDEX 01 01:04:60
  TRACK 45 AUDIO
    TITLE "4:cjc004_4343"
    INDEX 01 01:05:09
  TRACK 46 AUDIO
    TITLE "0:"
    INDEX 01 01:06:67
  TRACK 47 AUDIO
    TITLE "5:cjc004_4344"
    INDEX 01 01:07:17
  TRACK 48 AUDIO
    TITLE "0:"
    INDEX 01 01:12:28
  TRACK 49 AUDIO
    TITLE "3:cjc004_4345"
    INDEX 01 01:13:06
  TRACK 50 AUDIO
    TITLE "0:"
    INDEX 01 01:14:27
  TRACK 51 AUDIO
    TITLE "4:cjc004_4346"
    INDEX 01 01:14:55
  TRACK 52 AUDIO
    TITLE "0:"
    INDEX 01 01:16:46
  TRACK 53 AUDIO
    TITLE "5:cjc004_4347"
    INDEX 01 01:16:73
  TRACK 54 AUDIO
    TITLE "0:"
    INDEX 01 01:22:41
  TRACK 55 AUDIO
    TITLE "3:cjc004_4348"
    INDEX 01 01:23:20
  TRACK 56 AUDIO
    TITLE "0:"
    INDEX 01 01:24:49
  TRACK 57 AUDIO
    TITLE "4:cjc004_4349"
    INDEX 01 01:25:04
  TRACK 58 AUDIO
    TITLE "0:"
    INDEX 01 01:26:07
  TRACK 59 AUDIO
    TITLE "5:cjc004_4350"
    INDEX 01 01:26:34
  TRACK 60 AUDIO
    TITLE "0:"
    INDEX 01 01:32:62
